<?xml version="1.0" standalone="no"?>
<!DOCTYPE svg PUBLIC "-//W3C//DTD SVG 20010904//EN"
 "http://www.w3.org/TR/2001/REC-SVG-20010904/DTD/svg10.dtd">
<svg version="1.0" xmlns="http://www.w3.org/2000/svg"
 width="773.000000pt" height="323.000000pt" viewBox="0 0 773.000000 323.000000"
 preserveAspectRatio="xMidYMid meet">
<metadata>
Created by potrace 1.16, written by Peter Selinger 2001-2019
</metadata>
<g transform="translate(0.000000,323.000000) scale(0.100000,-0.100000)"
fill="#3f48cc" stroke="none">
<path d="M637 2152 l-27 -28 0 -536 c0 -512 1 -537 19 -559 19 -24 22 -24 238
-27 120 -2 237 0 261 3 73 11 72 0 72 585 0 546 -1 554 -49 580 -12 6 -112 10
-253 10 l-234 0 -27 -28z m383 -557 l0 -445 -120 0 -120 0 0 445 0 445 120 0
120 0 0 -445z"/>
<path d="M1350 1590 l0 -590 80 0 80 0 2 327 3 327 48 -170 c26 -93 47 -175
47 -182 0 -6 12 -55 27 -107 l27 -95 42 0 43 0 15 54 c9 30 16 62 16 73 0 18
7 43 49 189 11 39 27 105 36 148 9 42 19 86 23 96 4 10 6 -134 4 -321 l-4
-339 86 0 86 0 0 590 0 590 -84 0 c-94 0 -83 11 -106 -99 -6 -24 -25 -93 -44
-155 -32 -106 -85 -291 -111 -386 l-13 -45 -7 40 c-4 22 -24 94 -45 160 -20
66 -44 150 -53 186 -8 36 -32 118 -52 182 l-37 117 -79 0 -79 0 0 -590z"/>
<path d="M2210 1590 l0 -590 245 0 245 0 0 75 0 74 -157 3 -158 3 -3 188 -2
187 135 0 135 0 0 75 0 75 -135 0 -135 0 0 175 0 175 155 0 155 0 0 75 0 75
-240 0 -240 0 0 -590z"/>
<path d="M2875 2170 c-51 -20 -50 -10 -53 -524 -2 -265 -1 -509 3 -543 11
-103 -3 -98 272 -101 265 -3 280 0 300 58 8 24 12 123 12 303 l1 267 -160 0
-160 0 0 -75 0 -75 70 0 70 0 0 -165 0 -165 -120 0 -120 0 2 443 3 442 118 3
117 3 0 -111 0 -110 91 0 90 0 -3 151 -3 151 -33 29 -32 29 -223 -1 c-122 0
-231 -4 -242 -9z"/>
<path d="M3737 2173 c-7 -12 -35 -151 -42 -208 -3 -27 -23 -131 -44 -230 -21
-99 -43 -214 -50 -255 -6 -41 -27 -147 -45 -235 -19 -88 -36 -179 -39 -202
l-5 -43 89 0 89 0 0 35 c0 19 5 68 11 110 l11 75 118 0 118 0 6 -67 c4 -38 9
-87 13 -110 l5 -43 87 0 88 0 -15 83 c-7 45 -31 168 -53 272 -21 105 -43 222
-49 260 -5 39 -23 131 -39 205 -16 74 -34 171 -40 215 -6 44 -15 94 -19 110
l-8 30 -91 3 c-50 1 -93 -1 -96 -5z m117 -423 c10 -63 26 -165 37 -226 28
-167 34 -154 -66 -154 -47 0 -85 2 -85 4 0 2 4 26 10 54 5 28 14 88 19 134 17
137 55 329 62 316 3 -7 14 -65 23 -128z"/>
<path d="M4570 1590 l0 -590 85 0 85 0 0 215 0 215 157 0 c170 0 215 9 232 47
7 16 11 134 11 338 l0 313 -31 26 -31 26 -254 0 -254 0 0 -590z m398 218 l2
-228 -115 0 -115 0 0 223 c0 123 3 227 7 231 4 3 54 5 112 4 l106 -3 3 -227z"/>
<path d="M5441 2103 c-7 -43 -29 -157 -48 -253 -20 -96 -40 -202 -45 -235 -4
-33 -26 -145 -47 -250 -21 -104 -45 -230 -53 -278 l-14 -88 85 3 86 3 7 50 c4
28 10 76 13 108 l6 57 114 0 c63 0 116 -4 120 -9 3 -5 11 -55 17 -110 l12
-101 86 0 86 0 -7 63 c-4 34 -17 100 -27 147 -11 47 -30 139 -42 205 -12 66
-33 174 -47 240 -13 66 -33 170 -44 230 -11 61 -28 151 -37 200 l-17 90 -96 3
-96 3 -12 -78z m135 -349 c13 -70 28 -166 34 -213 5 -47 13 -105 16 -128 l7
-43 -87 0 c-47 0 -86 3 -86 7 0 4 11 68 24 143 13 74 32 188 41 253 10 65 20
116 22 113 3 -3 16 -62 29 -132z"/>
<path d="M5945 2123 c4 -32 22 -130 40 -218 19 -88 39 -191 45 -230 7 -38 29
-156 51 -261 22 -105 44 -224 49 -265 6 -41 14 -90 18 -109 l8 -35 89 0 90 0
17 80 c10 44 23 114 28 155 6 41 28 158 50 260 21 102 45 226 53 275 9 50 27
144 40 210 14 66 28 137 31 158 l5 37 -84 0 c-78 0 -83 -1 -88 -22 -19 -83
-136 -799 -138 -848 -1 -14 -5 2 -10 35 -31 243 -41 311 -59 404 -38 205 -60
336 -60 368 0 60 -4 63 -97 63 l-84 0 6 -57z"/>
<path d="M6660 1590 l0 -590 250 0 250 0 0 75 0 75 -160 0 -160 0 0 190 0 190
135 0 135 0 0 75 0 75 -135 0 -135 0 0 175 0 175 155 0 155 0 0 75 0 75 -245
0 -245 0 0 -590z"/>
</g>
</svg>
